<?xml version="1.0" encoding="utf-8"?>
<!-- Generator: Adobe Illustrator 27.0.1, SVG Export Plug-In . SVG Version: 6.00 Build 0)  -->
<svg version="1.1" id="logo" xmlns="http://www.w3.org/2000/svg" xmlns:xlink="http://www.w3.org/1999/xlink" x="0px" y="0px"
	 viewBox="0 0 425 289" style="enable-background:new 0 0 425 289;" xml:space="preserve">
<style type="text/css">
	.st0{fill:#FFFFFF;}
	.st1{fill:#254478;}
	.st2{fill:#3B97D3;}
</style>
<rect y="0" class="st0" width="425" height="289"/>
<g>
	<path class="st1" d="M198.1,135.1c10.5-23,25.9-38.1,47.9-37.5c-4.9-1.2-13.4-2.4-22.5,0.3c-1-0.4-2-0.7-3-1
		c-28-8.3-58.4,7-67.5,33.8c0,0.1-0.1,0.2-0.1,0.3c-0.3,1.1-1.2,2.1-2.8,2.5c-14.4,3.6-24.4,16.4-23.7,30.9
		c0.6,12.2,9.2,22.8,20.8,26.8v0C173.2,198,188.6,155.8,198.1,135.1z"/>
	<g>
		<path class="st2" d="M298.1,144.6c-4.1-25.8-33.4-41.8-58.3-30.9c-11.6,5.1-19.8,15-25.8,25.6c-6.7,11.7-11.9,24.2-18.5,36
			c-3.7,6.6-7.5,12.7-13.7,17.4c-0.5,0.3-0.9,0.7-1.4,1c20.4-6,27.8-27.8,41.7-52c20.4-35.5,51.9-23.4,62.8-9.6
			c10.7,13.6,12.1,37-5.7,52.2l0,0c2.3-1.3,4.2-2.5,5.4-3.6C295,171.6,300.2,158,298.1,144.6z"/>
		<path class="st2" d="M253.1,131.1c10.4-1.8,20.1,3.4,24.7,9.2c6.8,8.6,8,25.2,3.1,37.2c9.5-12.9,8.7-32.3,0.4-42.9
			c-4.7-5.9-14.3-11.9-25.1-11.9c-11.8,0-22.2,7.3-30.2,21c-2.7,4.7-5.1,9.3-7.5,13.7c-7.6,14.2-12.1,27.8-28.6,36.8
			C218.5,193.6,226.2,135.8,253.1,131.1z"/>
		<path class="st2" d="M274.2,143c-3.1-3.9-9.5-7.9-16.9-7.9c-1.1,0-2.3,0.1-3.4,0.3c-10.9,1.9-19,15.8-26.9,29.3
			c-6.7,11.5-13.5,23.2-22.9,29.4c0.2,0.1,0.4,0.1,0.6,0.2c10.3-5.1,18.7-15.3,23.4-23.3c7.4-12.7,15.3-24.6,25.3-27.5
			c20-5.7,27.1,15.5,23.3,32c0.4-0.7,0.7-1.4,1-2.2C281.7,163.3,280.3,150.8,274.2,143z"/>
	</g>
	<g>
		<path class="st1" d="M158.7,193.6c0,0,0.2,0,0.5,0c0.3,0,0.8,0.1,1.3,0.1c0.5,0,1.1,0,1.8-0.1c0.7-0.1,1.3-0.2,2-0.3
			c1.4-0.3,2.7-0.8,3.6-1.2c0.5-0.2,0.9-0.4,1.1-0.6c0.3-0.1,0.4-0.2,0.4-0.2l0.6,1.1c0,0-0.2,0.1-0.5,0.2c-0.3,0.1-0.7,0.3-1.2,0.5
			c-1,0.4-2.5,0.7-3.9,0.9c-0.7,0.1-1.4,0.1-2.1,0.1c-0.7,0-1.3-0.1-1.8-0.1c-0.5-0.1-1-0.1-1.3-0.2
			C158.8,193.6,158.7,193.6,158.7,193.6z"/>
		<path class="st1" d="M176.5,185.5c0,0,0.1-0.1,0.3-0.4c0.2-0.2,0.5-0.5,0.8-0.9c0.7-0.8,1.6-1.9,2.4-3c1.7-2.2,3.2-4.6,3.2-4.6
			l2.2,1.6c0,0-0.4,0.6-1.1,1.4c-0.6,0.9-1.6,2-2.5,3.1c-0.9,1.1-1.9,2.1-2.7,2.9c-0.4,0.4-0.7,0.7-0.9,0.9
			c-0.2,0.2-0.4,0.3-0.4,0.3L176.5,185.5z"/>
		<path class="st1" d="M188.1,168.7c0,0,0.3-0.6,0.8-1.5c0.5-0.9,1.2-2.2,1.8-3.4c1.3-2.5,2.5-5,2.5-5l3.1,1.6c0,0-1.3,2.5-2.7,5
			c-0.7,1.2-1.4,2.5-1.9,3.4c-0.5,0.9-0.9,1.5-0.9,1.5L188.1,168.7z"/>
		<polygon class="st1" points="197.3,150.2 202.3,140 205.7,141.7 200.6,151.9 		"/>
		<path class="st1" d="M207,131.6c0,0,0.4-0.6,1-1.5c0.6-0.9,1.4-2.1,2.2-3.3c0.8-1.2,1.7-2.3,2.4-3.2c0.7-0.8,1.1-1.4,1.1-1.4
			l2.7,2.2c0,0-0.4,0.5-1.1,1.4c-0.6,0.8-1.5,1.9-2.2,3.1c-0.8,1.1-1.6,2.3-2.1,3.2c-0.6,0.9-0.9,1.5-0.9,1.5L207,131.6z"/>
		<path class="st1" d="M220.4,115.2c0,0,0.1-0.1,0.4-0.3c0.2-0.2,0.6-0.5,1-0.9c0.8-0.7,2-1.6,3.2-2.5c1.2-0.8,2.4-1.6,3.4-2.2
			c0.9-0.6,1.6-0.9,1.6-0.9l1.4,2.5c0,0-0.6,0.3-1.5,0.9c-0.9,0.6-2,1.3-3.1,2.2c-1.1,0.8-2.2,1.7-2.9,2.4c-0.4,0.3-0.7,0.6-0.9,0.8
			c-0.2,0.2-0.4,0.3-0.4,0.3L220.4,115.2z"/>
		<path class="st1" d="M239,104.8c0,0,0.2,0,0.5-0.1c0.3-0.1,0.8-0.2,1.3-0.3c1.1-0.3,2.5-0.5,3.9-0.7c1.4-0.2,2.9-0.3,4-0.4
			c1.1,0,1.8,0,1.8,0l0.1,1.8c0,0-0.7,0-1.7,0.1c-1,0.1-2.4,0.3-3.8,0.6c-1.4,0.3-2.7,0.6-3.7,0.9c-0.5,0.1-0.9,0.3-1.2,0.4
			c-0.3,0.1-0.5,0.2-0.5,0.2L239,104.8z"/>
		<path class="st1" d="M260,104.3c0,0,0.7,0.1,1.7,0.4c1,0.3,2.4,0.7,3.8,1.1c2.7,0.9,5.3,2.1,5.3,2.1l0,0.1c0,0-0.7-0.2-1.7-0.5
			c-1-0.3-2.4-0.7-3.8-1c-1.4-0.3-2.8-0.6-3.8-0.8c-1-0.2-1.7-0.3-1.7-0.3L260,104.3z"/>
	</g>
</g>
</svg>
